<svg xmlns="http://www.w3.org/2000/svg" fill-rule="evenodd" stroke-linejoin="round" stroke-miterlimit="2" clip-rule="evenodd" viewBox="0 0 64 64"><rect width="64" height="64" fill="none"/><circle cx="660" cy="192" r="16" fill="#738b95" transform="translate(-640 -160)"/><circle cx="660" cy="192" r="16" fill="#738b95" transform="matrix(.4375 0 0 .9375 -243.75 -148)"/><circle cx="660" cy="192" r="16" fill="#738b95" transform="matrix(.1875 0 0 .875 -66.75 -136)"/><path fill="#617881" d="M698.59 203.87C698.129 205.22 697.584 206 697 206 695.344 206 694 199.727 694 192 694 184.273 695.344 178 697 178 697.139 178 697.276 178.044 697.41 178.13 696.563 180.606 696 184.998 696 190 696 197.079 697.128 202.937 698.59 203.87zM649.733 179.733C647.403 182.512 646 186.093 646 190 646 198.831 653.169 206 662 206 665.907 206 669.488 204.597 672.267 202.267 669.331 205.771 664.924 208 660 208 651.169 208 644 200.831 644 192 644 187.076 646.229 182.669 649.733 179.733zM683.082 177.571C681.223 180.269 680 184.831 680 190 680 198.279 683.137 205 687 205 687.665 205 688.308 204.801 688.918 204.429 687.8 206.052 686.451 207 685 207 681.137 207 678 200.279 678 192 678 185.146 680.15 179.36 683.082 177.571z" transform="translate(-640 -160)"/><path d="M660,175.5C650.893,175.5 643.5,182.893 643.5,192C643.5,201.107 650.893,208.5 660,208.5C669.107,208.5 676.5,201.107 676.5,192C676.5,182.893 669.107,175.5 660,175.5ZM660,176.5C668.555,176.5 675.5,183.445 675.5,192C675.5,200.555 668.555,207.5 660,207.5C651.445,207.5 644.5,200.555 644.5,192C644.5,183.445 651.445,176.5 660,176.5Z" transform="translate(-640 -160)"/><path d="M660,175.467C656.133,175.467 652.488,176.677 649.589,178.802C645.528,181.78 642.857,186.583 642.857,192C642.857,197.417 645.528,202.22 649.589,205.198C652.488,207.323 656.133,208.533 660,208.533C663.867,208.533 667.512,207.323 670.411,205.198C674.472,202.22 677.143,197.417 677.143,192C677.143,186.583 674.472,181.78 670.411,178.802C667.512,176.677 663.867,175.467 660,175.467ZM660,176.533C663.198,176.533 666.085,177.617 668.483,179.375C672.366,182.222 674.857,186.821 674.857,192C674.857,197.179 672.366,201.778 668.483,204.625C666.085,206.383 663.198,207.467 660,207.467C656.802,207.467 653.915,206.383 651.517,204.625C647.634,201.778 645.143,197.179 645.143,192C645.143,186.821 647.634,182.222 651.517,179.375C653.915,177.617 656.802,176.533 660,176.533Z" transform="matrix(.4375 0 0 .9375 -243.75 -148)"/><path d="M660,175.429C658.338,175.429 656.672,175.57 655.1,175.879C653.383,176.216 651.693,176.787 650.185,177.569C644.969,180.274 641.333,185.723 641.333,192C641.333,198.277 644.969,203.726 650.185,206.431C651.693,207.213 653.383,207.784 655.1,208.121C656.672,208.43 658.338,208.571 660,208.571C661.662,208.571 663.328,208.43 664.9,208.121C666.617,207.784 668.307,207.213 669.815,206.431C675.031,203.726 678.667,198.277 678.667,192C678.667,185.723 675.031,180.274 669.815,177.569C668.307,176.787 666.617,176.216 664.9,175.879C663.328,175.57 661.662,175.429 660,175.429ZM660,176.571C660.665,176.571 661.211,176.687 661.829,176.84C662.912,177.107 663.918,177.503 664.886,178.005C669.943,180.628 673.333,185.914 673.333,192C673.333,198.086 669.943,203.372 664.886,205.995C663.918,206.497 662.912,206.893 661.829,207.16C661.211,207.313 660.665,207.429 660,207.429C659.335,207.429 658.789,207.313 658.171,207.16C657.088,206.893 656.082,206.497 655.114,205.995C650.057,203.372 646.667,198.086 646.667,192C646.667,185.914 650.057,180.628 655.114,178.005C656.082,177.503 657.088,177.107 658.171,176.84C658.789,176.687 659.335,176.571 660,176.571Z" transform="matrix(.1875 0 0 .875 -66.75 -136)"/></svg>